<svg xmlns="http://www.w3.org/2000/svg" width="21.5" height="21.5" viewBox="0 0 21.5 21.5">
  <g id="Group_11" data-name="Group 11" transform="translate(-0.065 -0.065)">
    <path id="Path_10" data-name="Path 10" d="M6.754,10.152a1.367,1.367,0,0,0,1.332,1.4h1.5a1.191,1.191,0,0,0,1.161-1.22,1.049,1.049,0,0,0-.794-1.157L7.548,8.332a1.049,1.049,0,0,1-.794-1.157,1.191,1.191,0,0,1,1.162-1.22h1.5a1.367,1.367,0,0,1,1.332,1.4" transform="translate(0.072 0.071)" fill="none" stroke="#636a7a" stroke-linecap="round" stroke-linejoin="round" stroke-width="1.5"/>
    <line id="Line_5" data-name="Line 5" y2="0.743" transform="translate(8.825 11.679)" fill="none" stroke="#636a7a" stroke-linecap="round" stroke-linejoin="round" stroke-width="1.5"/>
    <line id="Line_6" data-name="Line 6" y2="0.783" transform="translate(8.825 5.228)" fill="none" stroke="#636a7a" stroke-linecap="round" stroke-linejoin="round" stroke-width="1.5"/>
    <circle id="Ellipse_2" data-name="Ellipse 2" cx="7.997" cy="7.997" r="7.997" transform="translate(0.815 0.815)" fill="none" stroke="#636a7a" stroke-linecap="round" stroke-linejoin="round" stroke-width="1.5"/>
    <path id="Path_11" data-name="Path 11" d="M11.727,18.634a4.956,4.956,0,1,0,6.935-6.886" transform="translate(0.079 0.079)" fill="none" stroke="#636a7a" stroke-linecap="round" stroke-linejoin="round" stroke-width="1.5"/>
  </g>
</svg>
